<svg width="579" height="128" viewBox="0 0 579 128" fill="none" xmlns="http://www.w3.org/2000/svg">
<path d="M302.577 76.6381L315.284 38.7917H336.429L309.774 101.368L298.752 127.399H278.633L292.792 96.8296L269.021 38.7917H290.167L302.577 76.6381Z" fill="white"/>
<path fill-rule="evenodd" clip-rule="evenodd" d="M378.264 37.5096C384.16 37.5096 389.372 38.92 393.899 41.7411C398.513 44.5622 402.101 48.4089 404.664 53.2816C407.312 58.1543 408.636 63.7111 408.636 69.9516C408.636 76.192 407.312 81.7489 404.664 86.6216C402.101 91.4944 398.513 95.3419 393.899 98.1625C389.372 100.984 384.16 102.394 378.264 102.394C374.078 102.394 370.234 101.582 366.731 99.9584C364.887 99.1028 363.222 98.0798 361.734 96.8931V127.399H342.383V38.7917H361.989V43.0934C363.413 41.929 364.993 40.9225 366.731 40.0739C370.234 38.3642 374.078 37.5097 378.264 37.5096ZM374.805 55.2048C372.071 55.2048 369.636 55.8467 367.5 57.129C365.45 58.3258 363.826 60.0352 362.63 62.2577C361.435 64.4802 360.836 67.0451 360.836 69.9516C360.836 72.7727 361.392 75.2948 362.502 77.5175C363.699 79.7402 365.364 81.4928 367.5 82.7751C369.636 84.0574 372.028 84.6983 374.676 84.6984C377.496 84.6984 379.931 84.0574 381.981 82.7751C384.117 81.4928 385.783 79.7402 386.979 77.5175C388.175 75.2948 388.773 72.7727 388.773 69.9516C388.773 67.0451 388.175 64.4802 386.979 62.2577C385.783 60.0352 384.117 58.3258 381.981 57.129C379.931 55.8467 377.539 55.2049 374.805 55.2048Z" fill="white"/>
<path fill-rule="evenodd" clip-rule="evenodd" d="M235.569 37.3806C241.72 37.3806 247.146 38.7059 251.845 41.356C256.544 44.0062 260.217 47.6826 262.865 52.3844C265.599 57.0863 266.966 62.4718 266.966 68.5414C266.966 69.6527 266.881 70.8495 266.71 72.1318C266.625 73.3286 266.411 74.7391 266.07 76.3634L221.426 76.4689C221.712 77.4745 222.068 78.4228 222.498 79.3127C223.865 81.8774 225.745 83.8862 228.137 85.3394C230.614 86.7073 233.52 87.3917 236.851 87.3917C239.927 87.3917 242.704 86.8783 245.181 85.8525C247.659 84.7412 249.838 83.117 251.717 80.9799L262.481 91.7513C259.405 95.3417 255.689 98.0345 251.332 99.8304C246.975 101.625 242.191 102.522 236.979 102.522C230.23 102.522 224.207 101.155 218.91 98.4195C213.699 95.5981 209.598 91.7085 206.608 86.7506C203.618 81.7923 202.122 76.1922 202.122 69.9516C202.123 63.7111 203.574 58.1542 206.479 53.2816C209.469 48.3233 213.486 44.4342 218.526 41.6131C223.566 38.7921 229.247 37.3807 235.569 37.3806ZM235.698 52.3844C232.622 52.3844 229.931 53.1105 227.624 54.5637C225.403 55.9315 223.652 57.8979 222.37 60.4624C222 61.2556 221.687 62.102 221.431 63.0015L248.654 62.9239C248.389 61.7352 248.045 60.658 247.616 59.6933C246.59 57.2996 245.053 55.5045 243.002 54.3076C241.037 53.0254 238.603 52.3844 235.698 52.3844Z" fill="white"/>
<path fill-rule="evenodd" clip-rule="evenodd" d="M478.026 37.5096C482.212 37.5096 485.971 38.3217 489.303 39.9459C491.544 41.011 493.508 42.3533 495.198 43.9699V38.7917H514.42V101.112H495.198V96.0576C493.561 97.6072 491.639 98.9084 489.431 99.9584C486.014 101.583 482.212 102.394 478.026 102.394C472.302 102.394 467.176 100.984 462.648 98.1625C458.205 95.3419 454.659 91.4944 452.012 86.6216C449.448 81.7489 448.167 76.192 448.167 69.9516C448.167 63.7111 449.448 58.1543 452.012 53.2816C454.659 48.4088 458.205 44.5622 462.648 41.7411C467.176 38.92 472.302 37.5096 478.026 37.5096ZM482.127 55.2048C479.393 55.2048 476.958 55.8467 474.821 57.129C472.772 58.3258 471.106 60.0353 469.824 62.2577C468.628 64.4802 468.03 67.0451 468.03 69.9516C468.03 72.7726 468.628 75.2948 469.824 77.5175C471.02 79.7401 472.686 81.4928 474.821 82.7751C476.958 84.0574 479.351 84.6984 481.999 84.6984C486.185 84.6983 489.56 83.3304 492.123 80.5949C494.685 77.7739 495.966 74.2259 495.966 69.9516C495.966 67.0451 495.368 64.4802 494.173 62.2577C493.062 60.0352 491.438 58.3258 489.303 57.129C487.253 55.8467 484.861 55.2049 482.127 55.2048Z" fill="white"/>
<path d="M158.627 66.6658L178.747 38.7917H200.66L177.885 68.1714L201.941 101.112H178.874L158.627 71.0786V101.112H139.02V12.8008H158.627V66.6658Z" fill="white"/>
<path d="M438.204 101.112H418.597V12.8008H438.204V101.112Z" fill="white"/>
<path d="M563.851 37.5096C566.841 37.5096 569.447 37.9794 571.668 38.9198C573.975 39.7746 575.983 41.1427 577.691 43.0233L566.03 57.7701C565.176 56.8297 564.107 56.1028 562.825 55.5898C561.544 55.077 560.092 54.8207 558.469 54.8207C555.222 54.8207 552.617 55.8465 550.652 57.8981C548.773 59.8643 547.832 62.8564 547.832 66.8742V101.112H528.226V38.7917H547.832V43.5364C551.677 39.5184 557.016 37.5096 563.851 37.5096Z" fill="white"/>
<path d="M37.5958 44.2406C39.9198 35.5622 48.8353 30.4121 57.5081 32.7375L71.745 36.5551C80.4178 38.8805 85.5646 47.8007 83.2407 56.4791L79.4256 70.725C77.1016 79.4033 68.1871 84.5534 59.5142 82.2281L45.2774 78.4115C36.6045 76.086 31.4578 67.165 33.7816 58.4865L37.5958 44.2406Z" fill="white"/>
<path fill-rule="evenodd" clip-rule="evenodd" d="M83.5537 0.361847C101.512 0.361848 116.069 14.9288 116.069 32.8982V82.6598C116.069 100.629 101.512 115.196 83.5537 115.196H33.8237C15.8659 115.196 1.30804 100.629 1.30804 82.6598V32.8982C1.30804 14.9288 15.8659 0.361847 33.8237 0.361847H83.5537ZM91.7452 35.6579C88.1909 22.3849 74.5562 14.5081 61.2916 18.0646L36.5761 24.6912C23.3115 28.2478 15.4397 41.8912 18.9939 55.1642L25.6163 79.8955C29.1707 93.1685 42.8053 101.045 56.07 97.4888L80.7855 90.8621C94.0501 87.3056 101.922 73.6622 98.3675 60.3892L91.7452 35.6579Z" fill="white"/>
</svg>
